<mxfile host="app.diagrams.net" modified="2022-08-17T09:24:35.736Z" agent="5.0 (X11; Linux x86_64) AppleWebKit/537.36 (KHTML, like Gecko) Chrome/104.0.0.0 Safari/537.36" etag="OaF2GzQ2e3DGspKgoFTe" version="20.2.4" type="github" pages="3">
  <diagram id="o6OXmS90365OrSwRLali" name="beginner_level">
    <mxGraphModel dx="1422" dy="761" grid="1" gridSize="10" guides="1" tooltips="1" connect="1" arrows="1" fold="1" page="1" pageScale="1" pageWidth="1200" pageHeight="1920" background="#333333" math="0" shadow="0">
      <root>
        <mxCell id="0" />
        <mxCell id="1" parent="0" />
        <mxCell id="bhAEWXer5qA2Sv7WhRgn-4" value="机构" style="shape=umlActor;verticalLabelPosition=bottom;verticalAlign=top;html=1;outlineConnect=0;fillColor=#FFFFFF;strokeColor=#E6E6E6;fontColor=#E6E6E6;fontStyle=1" parent="1" vertex="1">
          <mxGeometry x="640" y="160" width="40" height="60" as="geometry" />
        </mxCell>
        <mxCell id="bhAEWXer5qA2Sv7WhRgn-5" value="家属" style="shape=umlActor;verticalLabelPosition=bottom;verticalAlign=top;html=1;outlineConnect=0;strokeColor=#E6E6E6;fontColor=#E6E6E6;fontStyle=1" parent="1" vertex="1">
          <mxGeometry x="200" y="480" width="40" height="60" as="geometry" />
        </mxCell>
        <mxCell id="bhAEWXer5qA2Sv7WhRgn-6" value="民政" style="shape=umlActor;verticalLabelPosition=bottom;verticalAlign=top;html=1;outlineConnect=0;strokeColor=#E6E6E6;fontColor=#E6E6E6;fontStyle=1" parent="1" vertex="1">
          <mxGeometry x="200" y="160" width="40" height="60" as="geometry" />
        </mxCell>
        <mxCell id="ORQdb_XszPC-QWwdxvG8-5" value="" style="edgeStyle=orthogonalEdgeStyle;rounded=0;orthogonalLoop=1;jettySize=auto;html=1;startArrow=classic;startFill=1;endArrow=none;endFill=0;curved=1;strokeColor=#E6E6E6;" parent="1" edge="1">
          <mxGeometry relative="1" as="geometry">
            <mxPoint x="300" y="350" as="sourcePoint" />
            <mxPoint x="220" y="250" as="targetPoint" />
          </mxGeometry>
        </mxCell>
        <mxCell id="ORQdb_XszPC-QWwdxvG8-7" value="" style="edgeStyle=orthogonalEdgeStyle;rounded=0;orthogonalLoop=1;jettySize=auto;html=1;startArrow=classic;startFill=1;endArrow=none;endFill=0;curved=1;strokeColor=#E6E6E6;" parent="1" edge="1">
          <mxGeometry relative="1" as="geometry">
            <mxPoint x="300" y="370" as="sourcePoint" />
            <mxPoint x="220" y="460" as="targetPoint" />
          </mxGeometry>
        </mxCell>
        <mxCell id="ORQdb_XszPC-QWwdxvG8-9" value="" style="edgeStyle=orthogonalEdgeStyle;rounded=0;orthogonalLoop=1;jettySize=auto;html=1;startArrow=classic;startFill=1;endArrow=none;endFill=0;curved=1;strokeColor=#E6E6E6;" parent="1" edge="1">
          <mxGeometry relative="1" as="geometry">
            <mxPoint x="580" y="350" as="sourcePoint" />
            <mxPoint x="660" y="250" as="targetPoint" />
          </mxGeometry>
        </mxCell>
        <mxCell id="bhAEWXer5qA2Sv7WhRgn-13" value="运营" style="shape=umlActor;verticalLabelPosition=bottom;verticalAlign=top;html=1;outlineConnect=0;strokeColor=#E6E6E6;fontColor=#E6E6E6;fontStyle=1" parent="1" vertex="1">
          <mxGeometry x="640" y="480" width="40" height="60" as="geometry" />
        </mxCell>
        <mxCell id="ORQdb_XszPC-QWwdxvG8-13" value="" style="edgeStyle=orthogonalEdgeStyle;curved=1;rounded=0;orthogonalLoop=1;jettySize=auto;html=1;startArrow=classic;startFill=1;endArrow=none;endFill=0;strokeColor=#E6E6E6;" parent="1" edge="1">
          <mxGeometry relative="1" as="geometry">
            <mxPoint x="580" y="370" as="sourcePoint" />
            <mxPoint x="660" y="460" as="targetPoint" />
          </mxGeometry>
        </mxCell>
        <mxCell id="ORQdb_XszPC-QWwdxvG8-11" value="&lt;font color=&quot;#e6e6e6&quot;&gt;&lt;b&gt;大清谷疗养云&lt;/b&gt;&lt;/font&gt;" style="ellipse;whiteSpace=wrap;html=1;aspect=fixed;strokeColor=#E6E6E6;strokeWidth=2;fillColor=none;" parent="1" vertex="1">
          <mxGeometry x="320" y="241" width="240" height="240" as="geometry" />
        </mxCell>
      </root>
    </mxGraphModel>
  </diagram>
  <diagram name="intermediate_level" id="cp-p9IDRzFn6kliFB4ks">
    <mxGraphModel dx="2622" dy="2681" grid="1" gridSize="10" guides="1" tooltips="1" connect="1" arrows="1" fold="1" page="1" pageScale="1" pageWidth="1200" pageHeight="1920" background="#333333" math="0" shadow="0">
      <root>
        <mxCell id="REcnGBDp7cXe4HOmCII1-0" />
        <mxCell id="REcnGBDp7cXe4HOmCII1-1" parent="REcnGBDp7cXe4HOmCII1-0" />
        <mxCell id="VxjQWF_ajNMZfc4Y4Wae-1" value="" style="edgeStyle=orthogonalEdgeStyle;rounded=0;orthogonalLoop=1;jettySize=auto;html=1;strokeColor=#E6E6E6;startArrow=classic;startFill=1;endArrow=none;endFill=0;curved=1;" edge="1" parent="REcnGBDp7cXe4HOmCII1-1" source="REcnGBDp7cXe4HOmCII1-10" target="VxjQWF_ajNMZfc4Y4Wae-0">
          <mxGeometry relative="1" as="geometry">
            <Array as="points">
              <mxPoint x="110" y="280" />
              <mxPoint x="110" y="120" />
            </Array>
          </mxGeometry>
        </mxCell>
        <mxCell id="VxjQWF_ajNMZfc4Y4Wae-3" value="" style="edgeStyle=orthogonalEdgeStyle;curved=1;rounded=0;orthogonalLoop=1;jettySize=auto;html=1;startArrow=classic;startFill=1;endArrow=none;endFill=0;strokeColor=#E6E6E6;" edge="1" parent="REcnGBDp7cXe4HOmCII1-1" source="REcnGBDp7cXe4HOmCII1-10" target="VxjQWF_ajNMZfc4Y4Wae-2">
          <mxGeometry relative="1" as="geometry" />
        </mxCell>
        <mxCell id="VxjQWF_ajNMZfc4Y4Wae-5" value="" style="edgeStyle=orthogonalEdgeStyle;curved=1;rounded=0;orthogonalLoop=1;jettySize=auto;html=1;startArrow=classic;startFill=1;endArrow=none;endFill=0;strokeColor=#E6E6E6;" edge="1" parent="REcnGBDp7cXe4HOmCII1-1" source="REcnGBDp7cXe4HOmCII1-10" target="VxjQWF_ajNMZfc4Y4Wae-4">
          <mxGeometry relative="1" as="geometry">
            <Array as="points">
              <mxPoint x="440" y="240" />
              <mxPoint x="630" y="240" />
            </Array>
          </mxGeometry>
        </mxCell>
        <mxCell id="VxjQWF_ajNMZfc4Y4Wae-7" value="" style="edgeStyle=orthogonalEdgeStyle;curved=1;rounded=0;orthogonalLoop=1;jettySize=auto;html=1;startArrow=classic;startFill=1;endArrow=none;endFill=0;strokeColor=#E6E6E6;" edge="1" parent="REcnGBDp7cXe4HOmCII1-1" source="REcnGBDp7cXe4HOmCII1-10" target="VxjQWF_ajNMZfc4Y4Wae-6">
          <mxGeometry relative="1" as="geometry" />
        </mxCell>
        <mxCell id="VxjQWF_ajNMZfc4Y4Wae-9" value="" style="edgeStyle=orthogonalEdgeStyle;curved=1;rounded=0;orthogonalLoop=1;jettySize=auto;html=1;startArrow=classic;startFill=1;endArrow=none;endFill=0;strokeColor=#E6E6E6;" edge="1" parent="REcnGBDp7cXe4HOmCII1-1" source="REcnGBDp7cXe4HOmCII1-10" target="VxjQWF_ajNMZfc4Y4Wae-8">
          <mxGeometry relative="1" as="geometry" />
        </mxCell>
        <mxCell id="VxjQWF_ajNMZfc4Y4Wae-11" value="" style="edgeStyle=orthogonalEdgeStyle;curved=1;rounded=0;orthogonalLoop=1;jettySize=auto;html=1;startArrow=none;startFill=1;endArrow=none;endFill=0;strokeColor=#E6E6E6;" edge="1" parent="REcnGBDp7cXe4HOmCII1-1" source="VxjQWF_ajNMZfc4Y4Wae-16" target="VxjQWF_ajNMZfc4Y4Wae-10">
          <mxGeometry relative="1" as="geometry">
            <Array as="points" />
          </mxGeometry>
        </mxCell>
        <mxCell id="VxjQWF_ajNMZfc4Y4Wae-13" value="" style="edgeStyle=orthogonalEdgeStyle;curved=1;rounded=0;orthogonalLoop=1;jettySize=auto;html=1;startArrow=classic;startFill=1;endArrow=none;endFill=0;strokeColor=#E6E6E6;" edge="1" parent="REcnGBDp7cXe4HOmCII1-1" source="REcnGBDp7cXe4HOmCII1-10" target="VxjQWF_ajNMZfc4Y4Wae-12">
          <mxGeometry relative="1" as="geometry">
            <Array as="points">
              <mxPoint x="730" y="440" />
              <mxPoint x="730" y="600" />
            </Array>
          </mxGeometry>
        </mxCell>
        <mxCell id="VxjQWF_ajNMZfc4Y4Wae-15" value="" style="edgeStyle=orthogonalEdgeStyle;curved=1;rounded=0;orthogonalLoop=1;jettySize=auto;html=1;startArrow=classic;startFill=1;endArrow=none;endFill=0;strokeColor=#E6E6E6;" edge="1" parent="REcnGBDp7cXe4HOmCII1-1" source="REcnGBDp7cXe4HOmCII1-10" target="VxjQWF_ajNMZfc4Y4Wae-14">
          <mxGeometry relative="1" as="geometry">
            <Array as="points">
              <mxPoint x="440" y="490" />
              <mxPoint x="640" y="490" />
            </Array>
          </mxGeometry>
        </mxCell>
        <mxCell id="VxjQWF_ajNMZfc4Y4Wae-17" value="" style="edgeStyle=orthogonalEdgeStyle;curved=1;rounded=0;orthogonalLoop=1;jettySize=auto;html=1;startArrow=classic;startFill=1;endArrow=none;endFill=0;strokeColor=#E6E6E6;" edge="1" parent="REcnGBDp7cXe4HOmCII1-1" source="REcnGBDp7cXe4HOmCII1-10" target="VxjQWF_ajNMZfc4Y4Wae-16">
          <mxGeometry relative="1" as="geometry" />
        </mxCell>
        <mxCell id="VxjQWF_ajNMZfc4Y4Wae-19" value="" style="edgeStyle=orthogonalEdgeStyle;curved=1;rounded=0;orthogonalLoop=1;jettySize=auto;html=1;startArrow=classic;startFill=1;endArrow=none;endFill=0;strokeColor=#E6E6E6;" edge="1" parent="REcnGBDp7cXe4HOmCII1-1" source="REcnGBDp7cXe4HOmCII1-10" target="VxjQWF_ajNMZfc4Y4Wae-18">
          <mxGeometry relative="1" as="geometry" />
        </mxCell>
        <mxCell id="VxjQWF_ajNMZfc4Y4Wae-21" value="" style="edgeStyle=orthogonalEdgeStyle;curved=1;rounded=0;orthogonalLoop=1;jettySize=auto;html=1;startArrow=classic;startFill=1;endArrow=none;endFill=0;strokeColor=#E6E6E6;" edge="1" parent="REcnGBDp7cXe4HOmCII1-1" source="REcnGBDp7cXe4HOmCII1-10" target="VxjQWF_ajNMZfc4Y4Wae-20">
          <mxGeometry relative="1" as="geometry">
            <Array as="points">
              <mxPoint x="440" y="490" />
              <mxPoint x="241" y="490" />
            </Array>
          </mxGeometry>
        </mxCell>
        <mxCell id="VxjQWF_ajNMZfc4Y4Wae-23" value="" style="edgeStyle=orthogonalEdgeStyle;curved=1;rounded=0;orthogonalLoop=1;jettySize=auto;html=1;startArrow=classic;startFill=1;endArrow=none;endFill=0;strokeColor=#E6E6E6;" edge="1" parent="REcnGBDp7cXe4HOmCII1-1" source="REcnGBDp7cXe4HOmCII1-10" target="VxjQWF_ajNMZfc4Y4Wae-22">
          <mxGeometry relative="1" as="geometry" />
        </mxCell>
        <mxCell id="VxjQWF_ajNMZfc4Y4Wae-25" value="" style="edgeStyle=orthogonalEdgeStyle;curved=1;rounded=0;orthogonalLoop=1;jettySize=auto;html=1;startArrow=classic;startFill=1;endArrow=none;endFill=0;strokeColor=#E6E6E6;" edge="1" parent="REcnGBDp7cXe4HOmCII1-1" source="REcnGBDp7cXe4HOmCII1-10" target="VxjQWF_ajNMZfc4Y4Wae-24">
          <mxGeometry relative="1" as="geometry">
            <Array as="points">
              <mxPoint x="440" y="240" />
              <mxPoint x="240" y="240" />
            </Array>
          </mxGeometry>
        </mxCell>
        <mxCell id="VxjQWF_ajNMZfc4Y4Wae-27" value="" style="edgeStyle=orthogonalEdgeStyle;curved=1;rounded=0;orthogonalLoop=1;jettySize=auto;html=1;startArrow=classic;startFill=1;endArrow=none;endFill=0;strokeColor=#E6E6E6;" edge="1" parent="REcnGBDp7cXe4HOmCII1-1" source="REcnGBDp7cXe4HOmCII1-10" target="VxjQWF_ajNMZfc4Y4Wae-26">
          <mxGeometry relative="1" as="geometry">
            <Array as="points">
              <mxPoint x="760" y="280" />
              <mxPoint x="760" y="119" />
            </Array>
          </mxGeometry>
        </mxCell>
        <mxCell id="REcnGBDp7cXe4HOmCII1-10" value="&lt;font color=&quot;#e6e6e6&quot;&gt;&lt;b&gt;大清谷疗养云&lt;/b&gt;&lt;/font&gt;" style="ellipse;whiteSpace=wrap;html=1;aspect=fixed;strokeColor=#E6E6E6;strokeWidth=2;fillColor=none;" parent="REcnGBDp7cXe4HOmCII1-1" vertex="1">
          <mxGeometry x="320" y="241" width="240" height="240" as="geometry" />
        </mxCell>
        <mxCell id="VxjQWF_ajNMZfc4Y4Wae-0" value="&lt;font color=&quot;#e6e6e6&quot;&gt;&lt;b&gt;民政&lt;/b&gt;&lt;/font&gt;" style="ellipse;whiteSpace=wrap;html=1;aspect=fixed;strokeColor=#E6E6E6;strokeWidth=2;fillColor=none;" vertex="1" parent="REcnGBDp7cXe4HOmCII1-1">
          <mxGeometry x="-1" y="-40" width="81" height="81" as="geometry" />
        </mxCell>
        <mxCell id="VxjQWF_ajNMZfc4Y4Wae-2" value="&lt;font color=&quot;#e6e6e6&quot;&gt;&lt;b&gt;疗养&lt;/b&gt;&lt;/font&gt;" style="ellipse;whiteSpace=wrap;html=1;aspect=fixed;strokeColor=#E6E6E6;strokeWidth=2;fillColor=none;" vertex="1" parent="REcnGBDp7cXe4HOmCII1-1">
          <mxGeometry x="399.5" y="-40" width="80" height="80" as="geometry" />
        </mxCell>
        <mxCell id="VxjQWF_ajNMZfc4Y4Wae-4" value="&lt;font color=&quot;#e6e6e6&quot;&gt;&lt;b&gt;养老&lt;/b&gt;&lt;/font&gt;" style="ellipse;whiteSpace=wrap;html=1;aspect=fixed;strokeColor=#E6E6E6;strokeWidth=2;fillColor=none;" vertex="1" parent="REcnGBDp7cXe4HOmCII1-1">
          <mxGeometry x="600" y="-40" width="80" height="80" as="geometry" />
        </mxCell>
        <mxCell id="VxjQWF_ajNMZfc4Y4Wae-6" value="&lt;font color=&quot;#e6e6e6&quot;&gt;&lt;b&gt;药企&lt;/b&gt;&lt;/font&gt;" style="ellipse;whiteSpace=wrap;html=1;aspect=fixed;strokeColor=#E6E6E6;strokeWidth=2;fillColor=none;" vertex="1" parent="REcnGBDp7cXe4HOmCII1-1">
          <mxGeometry x="800" y="161" width="80" height="80" as="geometry" />
        </mxCell>
        <mxCell id="VxjQWF_ajNMZfc4Y4Wae-8" value="&lt;font color=&quot;#e6e6e6&quot;&gt;&lt;b&gt;供应商&lt;/b&gt;&lt;/font&gt;" style="ellipse;whiteSpace=wrap;html=1;aspect=fixed;strokeColor=#E6E6E6;strokeWidth=2;fillColor=none;" vertex="1" parent="REcnGBDp7cXe4HOmCII1-1">
          <mxGeometry x="800" y="321.5" width="79" height="79" as="geometry" />
        </mxCell>
        <mxCell id="VxjQWF_ajNMZfc4Y4Wae-10" value="&lt;font color=&quot;#e6e6e6&quot;&gt;&lt;b&gt;司法&lt;/b&gt;&lt;/font&gt;" style="ellipse;whiteSpace=wrap;html=1;aspect=fixed;strokeColor=#E6E6E6;strokeWidth=2;fillColor=none;" vertex="1" parent="REcnGBDp7cXe4HOmCII1-1">
          <mxGeometry y="161" width="80" height="80" as="geometry" />
        </mxCell>
        <mxCell id="VxjQWF_ajNMZfc4Y4Wae-12" value="&lt;font color=&quot;#e6e6e6&quot;&gt;&lt;b&gt;广告&lt;/b&gt;&lt;/font&gt;" style="ellipse;whiteSpace=wrap;html=1;aspect=fixed;strokeColor=#E6E6E6;strokeWidth=2;fillColor=none;" vertex="1" parent="REcnGBDp7cXe4HOmCII1-1">
          <mxGeometry x="799" y="520" width="80" height="80" as="geometry" />
        </mxCell>
        <mxCell id="VxjQWF_ajNMZfc4Y4Wae-14" value="&lt;font color=&quot;#e6e6e6&quot;&gt;&lt;b&gt;医院&lt;/b&gt;&lt;/font&gt;" style="ellipse;whiteSpace=wrap;html=1;aspect=fixed;strokeColor=#E6E6E6;strokeWidth=2;fillColor=none;" vertex="1" parent="REcnGBDp7cXe4HOmCII1-1">
          <mxGeometry x="600" y="561" width="80" height="80" as="geometry" />
        </mxCell>
        <mxCell id="VxjQWF_ajNMZfc4Y4Wae-18" value="&lt;font color=&quot;#e6e6e6&quot;&gt;&lt;b&gt;交易&lt;/b&gt;&lt;/font&gt;" style="ellipse;whiteSpace=wrap;html=1;aspect=fixed;strokeColor=#E6E6E6;strokeWidth=2;fillColor=none;" vertex="1" parent="REcnGBDp7cXe4HOmCII1-1">
          <mxGeometry x="800" y="720" width="80" height="80" as="geometry" />
        </mxCell>
        <mxCell id="VxjQWF_ajNMZfc4Y4Wae-20" value="&lt;font color=&quot;#e6e6e6&quot;&gt;&lt;b&gt;劳务&lt;/b&gt;&lt;/font&gt;" style="ellipse;whiteSpace=wrap;html=1;aspect=fixed;strokeColor=#E6E6E6;strokeWidth=2;fillColor=none;" vertex="1" parent="REcnGBDp7cXe4HOmCII1-1">
          <mxGeometry x="200" y="561" width="81" height="81" as="geometry" />
        </mxCell>
        <mxCell id="VxjQWF_ajNMZfc4Y4Wae-22" value="&lt;font color=&quot;#e6e6e6&quot;&gt;&lt;b&gt;社交&lt;/b&gt;&lt;/font&gt;" style="ellipse;whiteSpace=wrap;html=1;aspect=fixed;strokeColor=#E6E6E6;strokeWidth=2;fillColor=none;" vertex="1" parent="REcnGBDp7cXe4HOmCII1-1">
          <mxGeometry x="399.5" y="560" width="81" height="81" as="geometry" />
        </mxCell>
        <mxCell id="VxjQWF_ajNMZfc4Y4Wae-24" value="&lt;font color=&quot;#e6e6e6&quot;&gt;&lt;b&gt;托养&lt;/b&gt;&lt;/font&gt;" style="ellipse;whiteSpace=wrap;html=1;aspect=fixed;strokeColor=#E6E6E6;strokeWidth=2;fillColor=none;" vertex="1" parent="REcnGBDp7cXe4HOmCII1-1">
          <mxGeometry x="200" y="-40" width="81" height="81" as="geometry" />
        </mxCell>
        <mxCell id="VxjQWF_ajNMZfc4Y4Wae-26" value="&lt;font color=&quot;#e6e6e6&quot;&gt;&lt;b&gt;推荐&lt;/b&gt;&lt;/font&gt;" style="ellipse;whiteSpace=wrap;html=1;aspect=fixed;strokeColor=#E6E6E6;strokeWidth=2;fillColor=none;" vertex="1" parent="REcnGBDp7cXe4HOmCII1-1">
          <mxGeometry x="800" y="-39" width="80" height="80" as="geometry" />
        </mxCell>
        <mxCell id="VxjQWF_ajNMZfc4Y4Wae-16" value="&lt;font color=&quot;#e6e6e6&quot;&gt;&lt;b&gt;渠道&lt;/b&gt;&lt;/font&gt;" style="ellipse;whiteSpace=wrap;html=1;aspect=fixed;strokeColor=#E6E6E6;strokeWidth=2;fillColor=none;" vertex="1" parent="REcnGBDp7cXe4HOmCII1-1">
          <mxGeometry x="-1" y="321.5" width="81" height="81" as="geometry" />
        </mxCell>
        <mxCell id="VxjQWF_ajNMZfc4Y4Wae-28" value="" style="edgeStyle=orthogonalEdgeStyle;curved=1;rounded=0;orthogonalLoop=1;jettySize=auto;html=1;startArrow=classic;startFill=1;endArrow=none;endFill=0;strokeColor=#E6E6E6;" edge="1" parent="REcnGBDp7cXe4HOmCII1-1" source="REcnGBDp7cXe4HOmCII1-10" target="VxjQWF_ajNMZfc4Y4Wae-16">
          <mxGeometry relative="1" as="geometry">
            <mxPoint x="349.6728169375356" y="440" as="sourcePoint" />
            <mxPoint x="40" y="241" as="targetPoint" />
            <Array as="points">
              <mxPoint x="130" y="440" />
              <mxPoint x="130" y="580" />
            </Array>
          </mxGeometry>
        </mxCell>
      </root>
    </mxGraphModel>
  </diagram>
  <diagram name="advanced_level" id="LGlAGkDQFwwRUEZgPj1V">
    <mxGraphModel dx="1422" dy="761" grid="1" gridSize="10" guides="1" tooltips="1" connect="1" arrows="1" fold="1" page="1" pageScale="1" pageWidth="1200" pageHeight="1600" background="#333333" math="0" shadow="0">
      <root>
        <mxCell id="yj5ruCLaiizQrA4V6h2E-0" />
        <mxCell id="yj5ruCLaiizQrA4V6h2E-1" parent="yj5ruCLaiizQrA4V6h2E-0" />
        <mxCell id="yj5ruCLaiizQrA4V6h2E-2" value="机构" style="shape=umlActor;verticalLabelPosition=bottom;verticalAlign=top;html=1;outlineConnect=0;fillColor=#FFFFFF;strokeColor=#E6E6E6;fontColor=#E6E6E6;fontStyle=1" parent="yj5ruCLaiizQrA4V6h2E-1" vertex="1">
          <mxGeometry x="640" y="160" width="40" height="60" as="geometry" />
        </mxCell>
        <mxCell id="yj5ruCLaiizQrA4V6h2E-3" value="家属" style="shape=umlActor;verticalLabelPosition=bottom;verticalAlign=top;html=1;outlineConnect=0;strokeColor=#E6E6E6;fontColor=#E6E6E6;fontStyle=1" parent="yj5ruCLaiizQrA4V6h2E-1" vertex="1">
          <mxGeometry x="200" y="480" width="40" height="60" as="geometry" />
        </mxCell>
        <mxCell id="yj5ruCLaiizQrA4V6h2E-4" value="民政" style="shape=umlActor;verticalLabelPosition=bottom;verticalAlign=top;html=1;outlineConnect=0;strokeColor=#E6E6E6;fontColor=#E6E6E6;fontStyle=1" parent="yj5ruCLaiizQrA4V6h2E-1" vertex="1">
          <mxGeometry x="200" y="160" width="40" height="60" as="geometry" />
        </mxCell>
        <mxCell id="yj5ruCLaiizQrA4V6h2E-5" value="" style="edgeStyle=orthogonalEdgeStyle;rounded=0;orthogonalLoop=1;jettySize=auto;html=1;startArrow=classic;startFill=1;endArrow=none;endFill=0;curved=1;strokeColor=#E6E6E6;" parent="yj5ruCLaiizQrA4V6h2E-1" edge="1">
          <mxGeometry relative="1" as="geometry">
            <mxPoint x="300" y="350" as="sourcePoint" />
            <mxPoint x="220" y="250" as="targetPoint" />
          </mxGeometry>
        </mxCell>
        <mxCell id="yj5ruCLaiizQrA4V6h2E-6" value="" style="edgeStyle=orthogonalEdgeStyle;rounded=0;orthogonalLoop=1;jettySize=auto;html=1;startArrow=classic;startFill=1;endArrow=none;endFill=0;curved=1;strokeColor=#E6E6E6;" parent="yj5ruCLaiizQrA4V6h2E-1" edge="1">
          <mxGeometry relative="1" as="geometry">
            <mxPoint x="300" y="370" as="sourcePoint" />
            <mxPoint x="220" y="460" as="targetPoint" />
          </mxGeometry>
        </mxCell>
        <mxCell id="yj5ruCLaiizQrA4V6h2E-7" value="" style="edgeStyle=orthogonalEdgeStyle;rounded=0;orthogonalLoop=1;jettySize=auto;html=1;startArrow=classic;startFill=1;endArrow=none;endFill=0;curved=1;strokeColor=#E6E6E6;" parent="yj5ruCLaiizQrA4V6h2E-1" edge="1">
          <mxGeometry relative="1" as="geometry">
            <mxPoint x="580" y="350" as="sourcePoint" />
            <mxPoint x="660" y="250" as="targetPoint" />
          </mxGeometry>
        </mxCell>
        <mxCell id="yj5ruCLaiizQrA4V6h2E-8" value="运营" style="shape=umlActor;verticalLabelPosition=bottom;verticalAlign=top;html=1;outlineConnect=0;strokeColor=#E6E6E6;fontColor=#E6E6E6;fontStyle=1" parent="yj5ruCLaiizQrA4V6h2E-1" vertex="1">
          <mxGeometry x="640" y="480" width="40" height="60" as="geometry" />
        </mxCell>
        <mxCell id="yj5ruCLaiizQrA4V6h2E-9" value="" style="edgeStyle=orthogonalEdgeStyle;curved=1;rounded=0;orthogonalLoop=1;jettySize=auto;html=1;startArrow=classic;startFill=1;endArrow=none;endFill=0;strokeColor=#E6E6E6;" parent="yj5ruCLaiizQrA4V6h2E-1" edge="1">
          <mxGeometry relative="1" as="geometry">
            <mxPoint x="580" y="370" as="sourcePoint" />
            <mxPoint x="660" y="460" as="targetPoint" />
          </mxGeometry>
        </mxCell>
        <mxCell id="yj5ruCLaiizQrA4V6h2E-10" value="&lt;font color=&quot;#e6e6e6&quot;&gt;&lt;b&gt;大清谷疗养云&lt;/b&gt;&lt;/font&gt;" style="ellipse;whiteSpace=wrap;html=1;aspect=fixed;strokeColor=#E6E6E6;strokeWidth=2;fillColor=none;" parent="yj5ruCLaiizQrA4V6h2E-1" vertex="1">
          <mxGeometry x="320" y="241" width="240" height="240" as="geometry" />
        </mxCell>
      </root>
    </mxGraphModel>
  </diagram>
</mxfile>
